{"extensionsUsed" : ["KHR_materials_specular", "KHR_materials_ior"], "accessors" : [{"bufferView" : 0, "byteOffset" : 0, "componentType" : 5123, "count" : 4242, "type" : "SCALAR", "max" : [1410], "min" : [0]}, {"bufferView" : 1, "byteOffset" : 0, "componentType" : 5126, "count" : 1411, "type" : "VEC3", "max" : [0.33052825927734375, 0.1063079833984375, 0.06945955753326416], "min" : [-0.31072998046875, -0.162506103515625, -0.012698590755462646], "name" : "POSITION"}, {"bufferView" : 1, "byteOffset" : 12, "componentType" : 5126, "count" : 1411, "type" : "VEC3", "max" : [1.0000044107437134, 1.0000044107437134, 1.0000044107437134], "min" : [-1.0000044107437134, -1.0000044107437134, -1.0000044107437134], "name" : "NORMAL"}, {"bufferView" : 1, "byteOffset" : 24, "componentType" : 5126, "count" : 1411, "type" : "VEC2", "max" : [140.72320556640625, 2.0027716159820557], "min" : [-3.5342917442321777, -138.72232055664062], "name" : "TEXCOORD_0"}, {"bufferView" : 0, "byteOffset" : 8484, "componentType" : 5123, "count" : 324, "type" : "SCALAR", "max" : [199], "min" : [0]}, {"bufferView" : 2, "byteOffset" : 0, "componentType" : 5126, "count" : 200, "type" : "VEC3", "max" : [0.34276771545410156, 0.1299896240234375, 0.09698855876922607], "min" : [-0.3524913787841797, -0.1958160400390625, -0.06804144382476807], "name" : "POSITION"}, {"bufferView" : 2, "byteOffset" : 12, "componentType" : 5126, "count" : 200, "type" : "VEC3", "max" : [1.0000044107437134, 1.0000044107437134, 1.0000044107437134], "min" : [-1.0000044107437134, -1.0000044107437134, -1.0000044107437134], "name" : "NORMAL"}, {"bufferView" : 2, "byteOffset" : 24, "componentType" : 5126, "count" : 200, "type" : "VEC2", "max" : [79.27181243896484, 1.4921550750732422], "min" : [15.14835262298584, -138.8660125732422], "name" : "TEXCOORD_0"}, {"bufferView" : 0, "byteOffset" : 9132, "componentType" : 5123, "count" : 1620, "type" : "SCALAR", "max" : [867], "min" : [0]}, {"bufferView" : 3, "byteOffset" : 0, "componentType" : 5126, "count" : 868, "type" : "VEC3", "max" : [0.32010459899902344, 0.2180938720703125, 0.05694222450256348], "min" : [-0.32131385803222656, -0.3783416748046875, -0.07805782556533813], "name" : "POSITION"}, {"bufferView" : 3, "byteOffset" : 12, "componentType" : 5126, "count" : 868, "type" : "VEC3", "max" : [1.0000044107437134, 1.0000044107437134, 1.0000044107437134], "min" : [-1.0000044107437134, -1.0000044107437134, -1.0000044107437134], "name" : "NORMAL"}, {"bufferView" : 3, "byteOffset" : 24, "componentType" : 5126, "count" : 868, "type" : "VEC2", "max" : [13.228711128234863, 139.6266326904297], "min" : [-67.20416259765625, -10.817536354064941], "name" : "TEXCOORD_0"}, {"bufferView" : 0, "byteOffset" : 12372, "componentType" : 5123, "count" : 309, "type" : "SCALAR", "max" : [117], "min" : [0]}, {"bufferView" : 4, "byteOffset" : 0, "componentType" : 5126, "count" : 118, "type" : "VEC3", "max" : [0.34343719482421875, 1.52587890625E-05, 0.08181315660476685], "min" : [-0.3518218994140625, 1.52587890625E-05, -0.0832168459892273], "name" : "POSITION"}, {"bufferView" : 4, "byteOffset" : 12, "componentType" : 5126, "count" : 118, "type" : "VEC3", "max" : [0.0066998787224292755, -0.9999769926071167, -0], "min" : [-0.0073998295702040195, -1.0000044107437134, -0], "name" : "NORMAL"}, {"bufferView" : 4, "byteOffset" : 24, "componentType" : 5126, "count" : 118, "type" : "VEC2", "max" : [9.20462703704834, 6.081778049468994], "min" : [-8.016046524047852, -2.380990982055664], "name" : "TEXCOORD_0"}], "asset" : {"generator" : "Aspose.3D 24.6.0", "version" : "2.0"}, "buffers" : [{"uri" : "data:application/octet-stream;base64,", "byteLength" : 96116}], "bufferViews" : [{"buffer" : 0, "byteOffset" : 0, "byteLength" : 12992, "target" : 34963}, {"buffer" : 0, "byteOffset" : 12996, "byteLength" : 45152, "byteStride" : 32, "target" : 34962}, {"buffer" : 0, "byteOffset" : 58152, "byteLength" : 6400, "byteStride" : 32, "target" : 34962}, {"buffer" : 0, "byteOffset" : 64556, "byteLength" : 27776, "byteStride" : 32, "target" : 34962}, {"buffer" : 0, "byteOffset" : 92336, "byteLength" : 3776, "byteStride" : 32, "target" : 34962}], "images" : [{"uri" : "data:image/jpeg;base64,"}, {"uri" : "data:image/jpeg;base64,"}, {"uri" : "data:image/jpeg;base64,"}], "materials" : [{"name" : "GDLM3_AMI", "extensions" : {"KHR_materials_specular" : {"specularFactor" : 0}, "KHR_materials_ior" : {"ior" : 1.4500000476837158}}, "pbrMetallicRoughness" : {"baseColorFactor" : [0.19607843458652496, 0.19607843458652496, 0.19607843458652496, 1], "metallicFactor" : 0, "roughnessFactor" : 1}, "emissiveFactor" : [0, 0, 0], "alphaMode" : "OPAQUE", "doubleSided" : true}, {"name" : " - 03", "extensions" : {"KHR_materials_specular" : {"specularFactor" : 0}, "KHR_materials_ior" : {"ior" : 1.4500000476837158}}, "pbrMetallicRoughness" : {"baseColorFactor" : [1, 1, 1, 1], "baseColorTexture" : {"index" : 0, "texCoord" : 0}, "metallicFactor" : 0, "roughnessFactor" : 1}, "emissiveFactor" : [0, 0, 0], "alphaMode" : "OPAQUE", "doubleSided" : true}, {"name" : " - ", "extensions" : {"KHR_materials_specular" : {"specularFactor" : 0}, "KHR_materials_ior" : {"ior" : 1.4500000476837158}}, "pbrMetallicRoughness" : {"baseColorFactor" : [1, 1, 1, 1], "baseColorTexture" : {"index" : 1, "texCoord" : 0}, "metallicFactor" : 0, "roughnessFactor" : 1}, "emissiveFactor" : [0, 0, 0], "alphaMode" : "OPAQUE", "doubleSided" : true}, {"name" : " -  ", "extensions" : {"KHR_materials_specular" : {"specularFactor" : 0}, "KHR_materials_ior" : {"ior" : 1.4500000476837158}}, "pbrMetallicRoughness" : {"baseColorFactor" : [1, 1, 1, 1], "baseColorTexture" : {"index" : 2, "texCoord" : 0}, "metallicFactor" : 0, "roughnessFactor" : 1}, "emissiveFactor" : [0, 0, 0], "alphaMode" : "OPAQUE", "doubleSided" : true}], "meshes" : [{"primitives" : [{"attributes" : {"POSITION" : 1, "NORMAL" : 2, "TEXCOORD_0" : 3}, "indices" : 0, "material" : 0, "mode" : 4}]}, {"primitives" : [{"attributes" : {"POSITION" : 5, "NORMAL" : 6, "TEXCOORD_0" : 7}, "indices" : 4, "material" : 1, "mode" : 4}]}, {"primitives" : [{"attributes" : {"POSITION" : 9, "NORMAL" : 10, "TEXCOORD_0" : 11}, "indices" : 8, "material" : 2, "mode" : 4}]}, {"primitives" : [{"attributes" : {"POSITION" : 13, "NORMAL" : 14, "TEXCOORD_0" : 15}, "indices" : 12, "material" : 3, "mode" : 4}]}], "nodes" : [{"matrix" : [-19.060905126805388, -2.4352596798709106E-09, -0.057780283769584675, 0, 0.057780283769584675, -1.3608038584001798E-06, -19.06090537272119, 0, -2.4352594361853285E-09, -19.060991041315532, 1.8526354149901224E-06, 0, 0.20217345654964447, 0.8251068592071533, -1.5240631103515625, 1], "mesh" : 0, "name" : "GDLM3_AMI"}, {"matrix" : [-19.060905126805388, -2.4352596798709106E-09, -0.057780283769584675, 0, 0.057780283769584675, -1.3608038584001798E-06, -19.06090537272119, 0, -2.4352594361853285E-09, -19.060991041315532, 1.8526354149901224E-06, 0, -0.07899266481399536, 0.34204643964767456, -1.5880296230316162, 1], "mesh" : 1, "name" : " - 03"}, {"matrix" : [-19.060905126805388, -2.4352596798709106E-09, -0.057780283769584675, 0, 0.057780283769584675, -1.3608038584001798E-06, -19.06090537272119, 0, -2.4352594361853285E-09, -19.060991041315532, 1.8526354149901224E-06, 0, -0.006197500508278608, -0.4207048714160919, 0.6633617877960205, 1], "mesh" : 2, "name" : " - "}, {"matrix" : [-19.060905126805388, -2.4352596798709106E-09, -0.057780283769584675, 0, 0.057780283769584675, -1.3608038584001798E-06, -19.06090537272119, 0, -2.4352594361853285E-09, -19.060991041315532, 1.8526354149901224E-06, 0, -0.07754694670438766, 0.05278825759887695, 2.14473032951355, 1], "mesh" : 3, "name" : " -  "}], "samplers" : [{"magFilter" : 9729, "minFilter" : 9987, "wrapS" : 10497, "wrapT" : 10497}, {"magFilter" : 9729, "minFilter" : 9987, "wrapS" : 10497, "wrapT" : 10497}, {"magFilter" : 9729, "minFilter" : 9987, "wrapS" : 10497, "wrapT" : 10497}], "scene" : 0, "scenes" : [{"nodes" : [0, 1, 2, 3]}], "textures" : [{"sampler" : 0, "source" : 0, "name" : ""}, {"sampler" : 1, "source" : 1, "name" : ""}, {"sampler" : 2, "source" : 2, "name" : ""}]}